<svg width="50" height="50" viewBox="0 0 50 50" fill="none" xmlns="http://www.w3.org/2000/svg">
<path d="M37.7627 29.7268C34.2874 29.7268 31.4601 32.5541 31.4601 36.0293C31.4601 39.5046 34.2874 42.3319 37.7627 42.3319C41.2385 42.3319 44.0652 39.5046 44.0652 36.0293C44.0652 32.5541 41.2379 29.7268 37.7627 29.7268ZM37.7627 39.1806C36.0248 39.1806 34.6114 37.7672 34.6114 36.0293C34.6114 34.2915 36.0248 32.8781 37.7627 32.8781C39.5005 32.8781 40.9139 34.2915 40.9139 36.0293C40.9139 37.7673 39.5005 39.1806 37.7627 39.1806Z" fill="#6859AC"/>
<path d="M16.229 29.7268C12.7537 29.7268 9.92645 32.5541 9.92645 36.0293C9.92645 39.5046 12.7537 42.3319 16.229 42.3319C19.7043 42.3319 22.5315 39.5046 22.5315 36.0293C22.5315 32.5541 19.7043 29.7268 16.229 29.7268ZM16.229 39.1806C14.4911 39.1806 13.0777 37.7672 13.0777 36.0293C13.0777 34.2915 14.4911 32.8781 16.229 32.8781C17.9664 32.8781 19.3803 34.2915 19.3803 36.0293C19.3803 37.7673 17.9669 39.1806 16.229 39.1806Z" fill="#6859AC"/>
<path d="M42.0068 11.687C41.7389 11.155 41.1943 10.8193 40.5987 10.8193H32.3004V13.9706H39.627L43.9174 22.5042L46.7336 21.0882L42.0068 11.687Z" fill="#6859AC"/>
<path d="M33.0358 34.5063H21.1135V37.6576H33.0358V34.5063Z" fill="#6859AC"/>
<path d="M11.502 34.5063H6.03985C5.16954 34.5063 4.46426 35.2117 4.46426 36.0819C4.46426 36.9522 5.16963 37.6575 6.03985 37.6575H11.5021C12.3724 37.6575 13.0776 36.9521 13.0776 36.0819C13.0776 35.2116 12.3723 34.5063 11.502 34.5063Z" fill="#6859AC"/>
<path d="M49.669 24.8738L46.5698 20.8822C46.2721 20.4978 45.8125 20.2729 45.3256 20.2729H33.876V9.24355C33.876 8.37324 33.1706 7.66797 32.3004 7.66797H6.03985C5.16954 7.66797 4.46426 8.37334 4.46426 9.24355C4.46426 10.1138 5.16963 10.8191 6.03985 10.8191H30.7247V21.8485C30.7247 22.7188 31.4301 23.4241 32.3003 23.4241H44.554L46.8486 26.38V34.5061H42.4893C41.619 34.5061 40.9138 35.2114 40.9138 36.0816C40.9138 36.952 41.6191 37.6572 42.4893 37.6572H48.4242C49.2945 37.6572 49.9998 36.9519 49.9999 36.0816V25.8402C49.9999 25.4904 49.8833 25.1501 49.669 24.8738Z" fill="#6859AC"/>
<path d="M11.3971 26.5232H4.14913C3.27882 26.5232 2.57355 27.2286 2.57355 28.0988C2.57355 28.9691 3.27892 29.6744 4.14913 29.6744H11.397C12.2673 29.6744 12.9726 28.969 12.9726 28.0988C12.9727 27.2286 12.2673 26.5232 11.3971 26.5232Z" fill="#6859AC"/>
<path d="M15.021 20.3254H1.57559C0.705371 20.3254 0 21.0308 0 21.9011C0 22.7714 0.705371 23.4767 1.57559 23.4767H15.021C15.8913 23.4767 16.5966 22.7713 16.5966 21.9011C16.5966 21.0309 15.8913 20.3254 15.021 20.3254Z" fill="#6859AC"/>
<path d="M17.5945 14.1282H4.14913C3.27882 14.1282 2.57355 14.8335 2.57355 15.7038C2.57355 16.5741 3.27892 17.2793 4.14913 17.2793H17.5945C18.4649 17.2793 19.1701 16.574 19.1701 15.7038C19.1702 14.8335 18.4649 14.1282 17.5945 14.1282Z" fill="#6859AC"/>
</svg>
