<svg width="138" height="47" viewBox="0 0 138 47" fill="none" xmlns="http://www.w3.org/2000/svg">
<g opacity="0.1">
<path d="M114.854 39.5788C114.851 39.5788 114.431 39.961 114.431 39.961C113.83 40.5086 113.212 41.0948 112.466 40.8016C112.259 40.7251 112.114 40.4452 112.08 40.2279C112.046 38.6606 112.738 37.2084 113.409 35.7944L113.581 35.4246C115.513 32.1374 117.758 28.264 121.055 25.5759C121.61 25.1673 122.213 24.8239 122.849 25.0917C122.996 25.2315 123.166 25.4738 123.166 25.7157C123.166 25.7925 123.099 25.9962 123.061 26.0595C122.14 27.5765 121.263 29.169 120.41 30.6978C118.744 33.7178 117.015 36.8391 114.853 39.5792L114.854 39.5788ZM96.9895 31.8319C96.8632 31.9216 94.636 31.1567 94.2056 29.0545C93.8404 27.2445 95.0631 25.8302 96.246 25.1173C96.7538 24.7094 97.5186 24.5696 98.0797 24.7726C98.6004 25.1298 98.7415 25.7674 98.7415 26.4544C98.7415 26.8757 98.6867 27.3086 98.6383 27.7034C98.6383 27.7034 98.6291 27.7802 98.6276 27.7929C98.2565 29.2068 97.6886 30.5958 96.9895 31.832L96.9895 31.8319ZM88.4813 40.3818C88.2542 40.0378 88.1789 39.6616 88.1713 39.2549C88.1278 36.7565 90.7646 32.2824 92.6259 29.8449H92.63C93.4101 31.5859 95.1763 32.7051 96.2426 33.1767C94.9183 36.184 90.3764 42.6243 88.4818 40.3818H88.4813ZM120.627 40.8254C120.186 41.1312 119.567 40.8961 119.798 40.1955C120.375 38.4117 122.668 34.7764 122.668 34.7764L129.055 23.2284H124.68C124.472 23.5766 124.028 24.3762 124.028 24.3762C123.825 24.0325 123.22 23.2682 122.971 23.1032C121.902 22.4146 120.334 22.7402 119.252 23.3643C114.548 26.168 111.117 31.7074 108.41 36.0266C108.41 36.0266 105.561 40.8284 103.98 41.1855C102.745 41.2875 102.872 39.5921 102.926 39.1971C103.403 36.3425 104.512 33.6287 105.629 31.1695C107.9 29.5641 110.493 27.4618 112.849 25.1556C117.962 20.1731 122.273 14.5283 122.903 13.2671C122.903 13.2671 122.221 13.4074 121.415 13.4326C117.482 19.0263 109.432 27.1562 106.992 28.3659C108.073 25.7152 115.058 13.0628 121.002 7.01099L121.937 6.09326C123.384 4.65342 124.882 3.17542 126.05 2.93327C126.174 2.9206 126.332 2.93327 126.469 3.22681C126.522 4.3479 126.112 5.17622 125.643 6.11903L124.984 7.49535C124.984 7.49535 125.917 7.3169 126.529 7.1125C127.239 5.74975 128.026 4.22028 127.736 2.3986C127.639 1.8124 127.223 1.36651 126.679 1.26449C124.906 0.920456 122.974 2.25792 121.419 3.34134L121.356 3.37929C113.363 9.76299 106.613 18.963 100.712 31.5263C100.284 31.8571 98.6319 32.2526 98.351 32.0612C98.9337 30.8383 99.6675 29.1942 100.035 27.4104C100.098 26.9006 100.157 26.3784 100.157 25.8689C100.157 24.7721 99.8991 23.7405 98.9352 23.0271C97.8053 22.4536 96.4088 22.7214 95.4672 23.1544C91.249 24.9383 88.0965 29.3473 85.8216 32.978C84.598 35.2849 83.378 37.7556 83.0403 40.585C82.8024 42.8017 83.2867 44.2288 84.5231 44.9426C85.7946 45.6047 87.395 44.9165 88.0236 44.5855C92.2969 42.2921 95.2829 37.6925 97.6364 33.4874C97.73 33.4749 99.015 33.4369 99.987 33.1817C100 33.1817 100.005 33.1817 100.027 33.1951C99.9713 33.3854 99.469 34.9149 99.469 34.9149C97.9774 39.3742 97.2876 42.4069 98.6965 44.2037C100.71 46.7395 104.043 44.1149 106.755 40.6485C106.173 44.8022 108.285 45.4523 109.895 45.1341C111.744 44.6247 113.804 42.611 114.761 41.5792C114.454 42.7895 114.537 44.9558 116.219 45.1722C117.372 45.3895 118.235 44.7502 119.233 44.2021C122.815 42.2142 127.102 35.5902 128.215 33.6751H126.756C125.173 36.1126 123.16 39.3087 120.627 40.8259L120.627 40.8254ZM65.4539 16.0901H69.5528L71.8661 12.2598H67.7664L65.4539 16.0901ZM130.929 5.9148C127.804 7.72444 124.564 8.89637 120.642 8.48875C119.555 9.73778 118.497 11.0245 117.521 12.3495C123.026 13.7766 128.861 10.604 132.116 7.58453C135.559 4.5391 137.324 0.704149 137.324 0.704149C137.324 0.704149 134.743 3.71092 130.929 5.91487L130.929 5.9148ZM96.4634 4.94678C95.8117 12.5663 90.0015 17.0393 88.564 17.3952C87.6928 17.5733 86.2063 17.1786 87.5332 13.9808C89.4876 9.67364 92.8242 6.01731 96.4041 4.14396C96.4912 4.46257 96.489 4.66592 96.4634 4.94658L96.4634 4.94678ZM85.142 24.1484C84.7258 23.2312 83.7376 22.6449 82.6846 22.7085C79.2648 23.0273 75.9199 25.8941 74.1634 30.0097C73.2419 32.1251 72.7389 33.8705 72.4091 36.6481C73.4724 35.3998 75.6415 33.3485 78.1029 32.2271C78.1029 32.2271 78.4378 29.5642 80.1457 27.1941C80.792 26.2127 82.0854 24.6329 83.5376 25.0532C84.8064 25.4867 84.3605 29.0672 82.6741 32.532C81.4263 35.0808 79.5169 37.6298 77.5849 39.3877C75.8768 40.8658 73.3496 42.6496 71.1385 41.2736C69.7459 40.433 69.0356 38.6742 69.1857 36.4062C69.8511 29.9719 72.7244 24.4926 76.8358 18.2492C81.0755 12.4517 85.749 6.50139 92.0451 3.32783C93.3293 2.66536 94.5185 2.51246 95.5464 2.92025C95.5464 2.92025 89.6364 6.2331 86.819 12.3623C86.1024 13.917 85.1056 16.0188 86.1093 17.8793C86.6338 18.8474 87.5651 18.924 88.3149 18.873C91.7682 18.0574 93.9992 14.7701 95.8222 11.7633C96.8791 9.48258 97.8184 7.21449 97.8184 4.69123C97.8184 4.38551 97.8028 3.97797 97.7774 3.67182C99.4273 2.78027 102.81 4.35988 102.81 4.35988C105.454 5.25213 111.083 9.64832 112.982 10.4889C113.908 9.39329 115.43 7.73701 116.287 6.90862L115.047 6.13128C113.06 4.89528 110.961 3.72294 108.894 2.56354C104.201 -0.0481541 100.381 0.869026 98.4363 1.58264C97.6721 1.86278 96.9737 2.10495 96.9737 2.10495C95.5309 0.499577 93.1646 0.652092 91.421 1.08561C85.1506 2.92032 79.329 7.39249 73.0876 15.1525C68.4988 21.2305 65.652 26.4804 64.1354 31.6659C62.966 35.1569 62.6106 40.2917 65.4649 43.3372C67.8916 45.923 71.1095 45.3629 73.382 44.433C78.3055 41.961 82.7305 36.6345 84.9357 30.506C85.4677 28.6842 86.0583 26.1104 85.1422 24.1479L85.142 24.1484ZM30.5675 18.2366C30.5593 18.262 29.7313 20.1986 29.7313 20.1986C29.6116 20.3004 29.4223 20.2496 29.2054 20.1986L28.8338 20.1345C27.6668 19.7652 26.7865 18.9751 26.5151 18.0324C26.1407 16.1975 27.6784 14.7577 28.3559 14.2355C29.0059 13.7764 30.0165 13.5344 30.6034 14.006C30.9653 14.4394 31.1024 14.9998 31.1024 15.6118C31.1026 16.4399 30.8519 17.3699 30.5675 18.2366H30.5675ZM28.7889 21.9186C28.7889 21.9186 28.7513 22.0337 28.7327 22.0713C28.7279 22.0713 26.8506 25.1926 26.8506 25.1926C25.7176 26.7346 24.3029 28.6719 22.5345 29.6016C22.0103 29.7801 21.2858 29.895 20.9166 29.4238C20.1339 28.468 20.5373 27.143 20.865 26.0727L20.981 25.6904C21.9207 23.0913 23.4117 20.7973 24.8629 18.6691C24.881 18.6566 24.9216 18.6439 24.9363 18.6439C24.9397 18.6566 24.9455 18.6566 24.9481 18.6822C25.8587 20.4657 27.5663 21.2936 28.8433 21.6764C28.8511 21.6764 28.8593 21.6891 28.8593 21.7147C28.8594 21.7527 28.8386 21.8041 28.7889 21.9183L28.7889 21.9186ZM52.2733 19.8673C53.113 18.6825 55.5573 15.5097 56.1531 14.9746C58.1572 13.1773 58.9582 13.9682 59.0275 14.5284C57.1572 17.9431 54.9497 21.8547 52.8743 25.3716C52.8784 25.359 52.2248 26.378 52.2248 26.378C51.3081 27.8049 50.3851 29.028 48.8797 29.8817C48.665 29.9458 48.3111 29.9714 48.0756 29.7924C47.7921 29.6012 47.6802 29.2826 47.7121 28.9511C47.8023 27.8557 48.8966 24.5052 52.2733 19.8671L52.2733 19.8673ZM31.4607 12.1204C28.8698 10.3875 23.6624 13.7004 19.4917 19.3826C15.6776 24.4798 14.0306 30.4041 15.823 33.1438C18.4892 36.3673 23.4389 31.6785 25.5437 29.1688L25.8152 28.8754C27.2466 27.3081 28.3525 25.4222 29.4229 23.6127C29.4229 23.6127 30.4067 21.9563 30.4537 21.8797C31.0617 21.7655 31.794 21.587 32.6193 21.3448C32.6075 21.3828 29.4618 26.7727 29.7828 29.4483C29.8827 30.2645 29.8064 33.246 32.662 34.1505C36.4679 34.8008 39.5073 31.7933 42.188 29.1175C42.188 29.1175 42.6449 28.672 42.9033 28.4176C42.8379 28.6845 42.7527 29.0406 42.7527 29.0406C41.6384 32.9906 43.1404 33.8194 44.0799 34.1252C46.9193 34.9667 50.3114 30.7616 50.3223 30.7616C50.2344 32.0861 49.9772 33.182 51.3469 34.0612C52.6398 34.533 53.9483 33.8138 54.9428 33.1384C58.5251 30.5646 61.4111 26.5364 63.7419 23.0543H62.255C62.2375 23.0543 58.5859 28.4495 56.2148 29.6221C56.2114 29.6221 55.7796 29.8479 55.531 29.6692C55.2232 29.4015 55.3446 28.845 55.5344 28.4509C55.5463 28.4251 64.6895 12.2599 64.6895 12.2599H60.3726C60.3726 12.2599 59.901 13.0376 59.8626 13.0886C59.8335 13.0632 59.7644 12.9295 59.7164 12.8654C57.0418 9.09398 50.9849 14.8951 46.4247 21.6221C44.6691 24.209 42.434 27.1216 40.1164 29.2242C40.1164 29.2242 36.683 32.4326 35.2159 30.1275C34.6796 29.1589 34.8446 27.7429 35.1471 26.8131C36.8551 21.8566 39.7984 17.3586 43.1476 14.6439C44.0931 13.8926 45.1207 13.6753 45.6308 13.994C46.1167 14.2875 46.1951 15.0132 45.8877 15.5102C45.1076 15.4848 44.4827 15.7265 43.9747 16.2617C42.9738 17.3321 42.6261 18.3643 42.9443 19.3329C44.4902 21.5753 47.5731 17.1411 47.424 14.4398C47.3707 13.4713 46.8638 12.5541 46.1074 12.1077C44.98 11.42 43.2601 11.5981 42.1471 12.1463C40.6571 12.7195 38.2985 14.7197 36.9217 16.2745C35.1885 18.2244 32.216 20.3902 31.2864 20.1477C31.5909 19.3191 34.1017 14.0824 31.4604 12.1208L31.4607 12.1204ZM53.1594 40.4707C48.0753 37.1321 41.1753 36.5463 30.0479 39.6934C18.1855 42.5351 14.2299 44.3567 9.03585 40.6999C7.04033 38.9035 6.32485 36.011 6.85916 31.8449C8.09828 25.0531 11.4467 18.5169 17.3949 11.2672C20.715 7.4958 23.7944 4.25921 27.861 2.9597C30.9776 2.14434 30.6862 4.6412 30.3091 4.99825C29.9112 4.99825 29.2427 5.06218 28.7261 5.40583C28.3068 5.73732 27.1558 6.80771 27.094 8.24755C27.0048 10.4517 29.2425 9.99291 30.2077 8.78275C31.248 7.41902 32.7854 4.8074 31.5761 2.37342C31.0692 1.50708 30.1934 0.908373 29.1059 0.704463C25.3823 0.487529 21.9142 2.29696 18.7136 4.29741C11.716 9.2538 6.11676 16.1219 2.94893 23.6397C1.12229 28.1756 -0.529604 34.673 1.94659 39.9616C3.86205 43.631 7.83874 45.5801 12.5835 45.1725C15.911 44.8161 19.9343 43.7198 22.641 43.0578C25.3471 42.3948 39.1995 37.5407 43.7514 45.989C43.7514 45.989 45.265 42.9939 49.0475 42.93C52.1572 42.6375 56.6436 43.8478 59.9105 46.2937C58.822 44.6251 55.7362 42.1659 53.1618 40.471L53.1594 40.4707Z" fill="black"/>
</g>
</svg>
