<svg width="98" height="62" viewBox="0 0 98 62" fill="none" xmlns="http://www.w3.org/2000/svg">
<g opacity="0.1">
<path d="M29.0076 26.3456V41.3752H24.0035V22.4837L34.3345 22.4935C38.7225 22.4935 40.2172 25.452 40.2172 28.1393V41.3752H35.2222V28.164C35.2222 27.0383 34.6127 26.3456 33.1426 26.3456H29.0076V26.3456ZM63.0347 26.1199C61.3243 26.1199 60.0005 26.9606 59.4477 28.1018C59.12 28.787 59.0074 29.3122 58.9689 30.1511H66.6674C66.5686 28.1018 65.5966 26.1199 63.0347 26.1199ZM58.9689 33.4073C58.9689 35.8544 60.56 37.6555 63.4008 37.6555C65.6111 37.6555 66.7096 37.0699 67.9875 35.8544L71.0783 38.6759C69.0993 40.5438 67.0228 41.6781 63.3641 41.6781C58.5738 41.6781 53.9895 39.1808 53.9895 31.9027C53.9895 25.684 57.992 22.1636 63.2515 22.1636C68.5826 22.1636 71.6625 26.2852 71.6625 31.6839V33.4073H58.9689ZM49.7653 41.3516C45.6887 41.3516 43.959 38.6384 43.959 35.9586V17.3366H48.9553V22.4837H52.7217V26.3456H48.9553V35.6592C48.9553 36.7567 49.4973 37.3659 50.6892 37.3659H52.7217V41.3516H49.7653ZM19.5511 19.873H14.5127V15.2971H19.5511V19.873ZM19.5637 41.5739C15.7907 41.2272 14.5073 39.0392 14.5073 36.5143L14.5127 22.4837H19.5638V41.5739H19.5637ZM79.6146 41.1702C75.8493 40.823 74.572 38.6384 74.572 36.117V14.6459H79.6146V41.1702ZM97.243 17.7489C92.6732 -3.55293 49.4239 -4.90146 21.5469 11.3241V13.1154C49.3955 -0.56797 88.8916 -0.48736 92.4901 19.1325C93.694 25.6201 89.8703 32.3841 83.0414 36.2719V41.3585C91.2609 38.4835 99.6906 29.1607 97.243 17.7489ZM46.5692 55.0189C27.3297 56.7192 7.28087 54.0492 4.47559 39.6754C3.10247 32.5896 6.47868 25.0783 10.9576 20.4125V17.9176C2.89469 24.6775 -1.48125 33.2357 1.03796 43.3479C4.25337 56.315 21.4602 63.6634 47.7237 61.2231C58.1149 60.2535 71.7155 57.0589 81.1708 52.0972V45.0483C72.5912 49.9328 58.3937 53.972 46.5692 55.0189Z" fill="black"/>
<path d="M85.4435 16.0715C85.4435 15.8377 85.3008 15.7634 84.9744 15.7634H84.6594V16.425C84.7052 16.425 84.934 16.4331 84.9744 16.4331C85.3008 16.4331 85.4435 16.3289 85.4435 16.1101V16.0715V16.0715ZM85.9349 17.7119H85.5616C85.5278 17.7119 85.4983 17.6918 85.4839 17.6647L84.9744 16.839C84.9653 16.8224 84.9214 16.8022 84.9039 16.8022H84.675V17.621C84.675 17.6647 84.6437 17.7119 84.5835 17.7119H84.2456C84.2035 17.7119 84.1613 17.6647 84.1613 17.621V15.5498C84.1613 15.43 84.2101 15.3799 84.3161 15.3644C84.4354 15.3494 84.7594 15.3391 84.934 15.3391C85.5543 15.3391 85.9295 15.5141 85.9295 16.0715V16.11C85.9295 16.455 85.7501 16.6369 85.4718 16.7262L86 17.5801C86.0034 17.5973 86.0156 17.621 86.0156 17.6411C86.0156 17.6745 85.9945 17.7119 85.9349 17.7119L85.9349 17.7119ZM85.0484 14.9654C84.1294 14.9654 83.3862 15.6909 83.3862 16.5644C83.3862 17.439 84.1294 18.153 85.0484 18.153C85.9626 18.153 86.713 17.439 86.713 16.5644C86.713 15.6909 85.9626 14.9654 85.0484 14.9654ZM85.0484 18.4823C83.9319 18.4823 83.0411 17.621 83.0411 16.5644C83.0411 15.5095 83.9319 14.6458 85.0484 14.6458C86.1529 14.6458 87.0605 15.5095 87.0605 16.5644C87.0605 17.621 86.1529 18.4823 85.0484 18.4823Z" fill="black"/>
</g>
</svg>
