<svg width="165" height="32" viewBox="0 0 165 32" fill="none" xmlns="http://www.w3.org/2000/svg">
<g opacity="0.1" clip-path="url(#clip0)">
<path fill-rule="evenodd" clip-rule="evenodd" d="M97.1488 21.9033C99.6016 21.9033 102.062 19.8509 102.062 16.8421C102.062 13.8337 99.6016 12.2721 97.1488 12.2721C94.5622 12.2721 92.7796 14.373 92.7796 17.0879C92.7796 19.8024 94.5622 21.9033 97.1488 21.9033ZM98.0455 8.42105C104.613 8.42105 106.314 14.3158 106.314 17.0879C106.314 21.0526 102.603 25.5494 98.0455 25.5494C96.163 25.5494 94.2014 24.8029 92.7796 23.3436V32.0146H88.4536V8.42105H92.7796V10.8329C94.2014 9.3732 96.163 8.42105 98.0455 8.42105Z" fill="black"/>
<path fill-rule="evenodd" clip-rule="evenodd" d="M30.6107 17.0879C30.6107 14.0795 32.4912 12.2721 34.9448 12.2721C37.5303 12.2721 39.3129 14.3723 39.314 17.0856C39.3129 19.8039 37.5303 21.9033 34.9448 21.9033C32.4912 21.9033 30.6107 20.0966 30.6107 17.0879ZM39.1237 10.9474C37.7019 9.48768 35.9302 8.62669 34.0474 8.62669C29.4899 8.62669 26.1547 12.0407 26.1547 17.0879C26.1547 22.1354 29.4899 25.5494 34.0474 25.5494C35.9302 25.5494 37.7019 25.0383 39.1237 23.5789V25.2632H43.3763V8.42105H39.1237V10.9474Z" fill="black"/>
<path fill-rule="evenodd" clip-rule="evenodd" d="M59.7749 17.6066C59.7749 20.0908 58.1094 21.9031 55.6134 21.9031C55.5262 21.9031 55.4413 21.9012 55.3575 21.8974C52.9828 21.7864 51.5372 20.1131 51.4553 17.4089C51.5402 15.03 53.1648 13.3147 55.6233 13.3101C58.2165 13.3154 59.7749 15.1254 59.7749 17.6066ZM61.6547 5.57537C64.6499 3.95547 64.6392 1.68421 64.6392 1.68421L61.2371 0C61.2371 0 60.4088 1.66595 58.4628 2.39958C56.0766 3.2991 52.7433 3.28092 50.4791 5.29055C47.8148 7.65468 46.9484 10.1582 46.9484 15.7882C46.9484 22.5224 50.4252 26.1053 55.6233 26.1053C60.9879 26.1053 64.2283 22.2671 64.2283 17.6066C64.2283 12.9742 60.8908 9.68779 56.0831 9.6787C54.3082 9.684 52.6507 10.3616 51.326 11.5467C51.6328 10.1358 52.2188 9.12005 53.3167 8.31976C55.7048 6.64229 59.3469 6.83811 61.6547 5.57537Z" fill="black"/>
<path fill-rule="evenodd" clip-rule="evenodd" d="M141.186 15.1579H134.381V8.42105H130.129V25.2632H134.381V18.5263H141.186V25.2632H145.438V8.42105H141.186V15.1579Z" fill="black"/>
<path fill-rule="evenodd" clip-rule="evenodd" d="M163.299 8.42105H148.84V11.7895H153.943V25.2632H158.196V11.7895H163.299V8.42105Z" fill="black"/>
<path fill-rule="evenodd" clip-rule="evenodd" d="M120.773 8.42105L113.969 18.5263V8.42105H109.717V25.2632H113.969L120.773 15.1579V25.2632H125.026V8.42105H120.773Z" fill="black"/>
<path fill-rule="evenodd" clip-rule="evenodd" d="M79.098 8.42105L72.2938 18.5263V8.42105H68.0413V25.2632H72.2938L79.098 15.1579V25.2632H83.3505V8.42105H79.098Z" fill="black"/>
<path fill-rule="evenodd" clip-rule="evenodd" d="M17.8608 25.2632H22.9639V7.57895H17.8608V25.2632Z" fill="black"/>
<path fill-rule="evenodd" clip-rule="evenodd" d="M22.9639 1.6842H17.0103L0 25.2631H5.95361L22.9639 1.6842Z" fill="black"/>
</g>
<defs>
<clipPath id="clip0">
<rect width="165" height="32" fill="white"/>
</clipPath>
</defs>
</svg>
