<svg width="127" height="27" viewBox="0 0 127 27" fill="none" xmlns="http://www.w3.org/2000/svg">
<g opacity="0.1">
<path d="M53.3317 5.99907C51.0614 5.99907 48.4794 7.06453 46.9018 9.19761L46.9029 9.19329L46.9018 9.19437L46.9029 6.33405H41.488V26.2968H46.9018V14.9377C46.9018 12.8932 48.4676 10.7202 51.3666 10.7202C53.6071 10.7202 55.9254 12.2978 55.9254 14.9377V26.2968H61.3403V13.9219C61.3403 9.33052 58.0954 5.99907 53.3317 5.99907Z" fill="black"/>
<path d="M99.8244 6.33481L94.9294 19.9329L90.0343 6.33481H83.8489L91.962 26.2911H97.8956L106.009 6.33481H99.8244Z" fill="black"/>
<path d="M25.3228 12.3488C26.245 11.0953 27.7138 10.3594 29.4877 10.3594C31.4389 10.3594 32.9194 11.4876 33.6847 13.1528L24.2245 17.1261C23.9662 15.087 24.4817 13.4921 25.3228 12.3488ZM35.7255 20.1593C33.4467 21.8666 32.1445 22.274 30.0663 22.274C28.1962 22.274 26.7318 21.6862 25.6996 20.6553L39.5425 14.8417C39.2404 12.6751 38.4281 10.7398 37.1782 9.26804C35.3594 7.12956 32.6675 5.99818 29.3895 5.99818C23.4357 5.99818 18.9463 10.4448 18.9463 16.3178C18.9463 22.3432 23.4464 26.6363 29.9862 26.6363C33.6505 26.6363 37.397 24.8782 39.1497 22.824L35.7255 20.1593Z" fill="black"/>
<path d="M18.4303 21.2635H6.12336V0.363831H0.634888V26.2969H18.4303V21.2635Z" fill="black"/>
<path d="M115.732 10.6955C112.708 10.6955 110.512 13.0155 110.512 16.3157C110.512 19.4667 112.838 21.9358 115.804 21.9358C118.829 21.9358 121.024 19.552 121.024 16.3157C121.024 13.1647 118.699 10.6955 115.732 10.6955ZM115.732 26.6331C109.81 26.6331 105.17 22.167 105.17 16.3157C105.17 10.5302 109.842 5.9982 115.804 5.9982C121.726 5.9982 126.365 10.4643 126.365 16.3157C126.365 22.1 121.694 26.6331 115.732 26.6331Z" fill="black"/>
<path d="M74.0428 10.6955C71.0189 10.6955 68.8244 13.0155 68.8244 16.3157C68.8244 19.4667 71.1492 21.9358 74.1165 21.9358C77.1404 21.9358 79.3349 19.552 79.3349 16.3157C79.3349 13.1647 77.0102 10.6955 74.0428 10.6955ZM74.0428 26.6331C68.121 26.6331 63.4822 22.167 63.4822 16.3157C63.4822 10.5302 68.153 5.9982 74.1165 5.9982C80.0372 5.9982 84.6771 10.4643 84.6771 16.3157C84.6771 22.1 80.0052 26.6331 74.0428 26.6331Z" fill="black"/>
</g>
</svg>
