<svg width="177" height="34" viewBox="0 0 177 34" fill="none" xmlns="http://www.w3.org/2000/svg">
<g clip-path="url(#clip0)">
<path d="M94.4902 26.274C95.3386 25.4235 95.33 24.0532 94.4706 23.2133L84.4114 13.3832C79.6541 8.73394 71.9888 8.78168 67.2911 13.4899C66.8993 13.8822 66.9036 14.5144 67.3002 14.9018L82.7371 29.9877C84.9874 32.1867 88.6129 32.1641 90.8346 29.9372L94.4902 26.274Z" fill="url(#paint0_linear)"/>
<path fill-rule="evenodd" clip-rule="evenodd" d="M88.5823 32.5833C88.1052 33.1342 86.8168 33.9055 85.4807 32.5833C84.1446 31.261 79.1978 26.5231 76.8917 24.3194C76.5734 24.0833 76.1759 23.3749 77.1303 22.4305L96.217 3.54159C99.3983 0.786961 107.669 -2.92785 115.304 4.24992C116.067 5.00548 115.463 5.82398 115.065 6.13881C115.065 6.13881 89.0595 32.0323 88.5823 32.5833ZM80.2319 23.3749L86.9122 30.2221L112.202 4.95826C109.578 3.06936 102.85 0.755473 96.9328 6.61103C91.0159 12.4666 83.3335 20.2268 80.2319 23.3749Z" fill="black"/>
<path d="M125.319 22.9023H122.665V12.4082H119V10.2197H128.993V12.4082H125.319V22.9023Z" fill="black"/>
<path d="M133.115 12.2939V16.3369H135.4C136.068 16.3369 136.587 16.1582 136.956 15.8008C137.331 15.4434 137.519 14.9482 137.519 14.3154C137.519 13.7002 137.325 13.2109 136.938 12.8477C136.552 12.4785 136.03 12.2939 135.374 12.2939H133.115ZM133.115 18.2617V22.9023H130.461V10.2197H135.655C137.103 10.2197 138.228 10.5801 139.03 11.3008C139.839 12.0156 140.243 13.0029 140.243 14.2627C140.243 15.0889 140.038 15.8271 139.628 16.4775C139.224 17.1221 138.661 17.585 137.94 17.8662L140.612 22.9023H137.606L135.242 18.2617H133.115Z" fill="black"/>
<path d="M150.298 22.9023L149.331 19.8262H144.875L143.908 22.9023H141.184L145.587 10.2197H148.707L153.119 22.9023H150.298ZM147.072 12.6455L145.446 17.8398H148.76L147.134 12.6455H147.072Z" fill="black"/>
<path d="M156.96 22.9023H154.42V10.2197H156.635L162.559 18.4814H162.629V10.2197H165.169V22.9023H162.972L157.039 14.5967H156.96V22.9023Z" fill="black"/>
<path d="M166.812 19.29H169.37C169.429 19.8057 169.701 20.2246 170.188 20.5469C170.68 20.8633 171.28 21.0215 171.989 21.0215C172.692 21.0215 173.264 20.8721 173.703 20.5732C174.148 20.2686 174.371 19.8818 174.371 19.4131C174.371 19.0029 174.207 18.6719 173.879 18.4199C173.551 18.168 173.003 17.957 172.235 17.7871L170.583 17.4268C168.257 16.9287 167.094 15.748 167.094 13.8848C167.094 12.7246 167.545 11.7871 168.447 11.0723C169.355 10.3574 170.521 10 171.945 10C173.41 10 174.579 10.3486 175.452 11.0459C176.325 11.7373 176.773 12.6602 176.797 13.8145H174.31C174.269 13.2812 174.031 12.8623 173.598 12.5576C173.17 12.2471 172.622 12.0918 171.954 12.0918C171.298 12.0918 170.768 12.2354 170.363 12.5225C169.965 12.8096 169.766 13.1875 169.766 13.6562C169.766 14.043 169.927 14.3564 170.249 14.5967C170.577 14.8369 171.107 15.042 171.84 15.2119L173.378 15.5371C174.649 15.8066 175.575 16.2285 176.155 16.8027C176.735 17.3711 177.025 18.1387 177.025 19.1055C177.025 20.3359 176.562 21.3145 175.637 22.041C174.711 22.7617 173.46 23.1221 171.884 23.1221C170.354 23.1221 169.136 22.7822 168.228 22.1025C167.325 21.417 166.854 20.4795 166.812 19.29Z" fill="black"/>
<path d="M6.00293 23.2197C4.15137 23.2197 2.68652 22.6367 1.6084 21.4707C0.536133 20.2988 0 18.6934 0 16.6543C0 14.6211 0.539062 13.0215 1.61719 11.8555C2.69531 10.6836 4.15723 10.0977 6.00293 10.0977C7.01074 10.0977 7.9248 10.2969 8.74512 10.6953C9.57129 11.0938 10.2334 11.6562 10.7314 12.3828C11.2295 13.1094 11.5107 13.9385 11.5752 14.8701H8.99121C8.86816 14.0908 8.53125 13.4668 7.98047 12.998C7.43555 12.5293 6.77637 12.2949 6.00293 12.2949C5.00098 12.2949 4.20117 12.6875 3.60352 13.4727C3.00586 14.2578 2.70703 15.3154 2.70703 16.6455C2.70703 17.999 3.00293 19.0684 3.59473 19.8535C4.18652 20.6328 4.99219 21.0225 6.01172 21.0225C6.79688 21.0225 7.45605 20.8057 7.98926 20.3721C8.52246 19.9385 8.85938 19.3467 9 18.5967H11.584C11.4375 20.0088 10.8604 21.1338 9.85254 21.9717C8.84473 22.8037 7.56152 23.2197 6.00293 23.2197Z" fill="black"/>
<path d="M24.249 23H21.5947V17.6562H15.8818V23H13.2275V10.3174H15.8818V15.4678H21.5947V10.3174H24.249V23Z" fill="black"/>
<path d="M34.7607 20.8027V23H26.3584V10.3174H34.7607V12.5059H29.0127V15.5645H34.4355V17.6035H29.0127V20.8027H34.7607Z" fill="black"/>
<path d="M42.2842 23.2197C40.4326 23.2197 38.9678 22.6367 37.8896 21.4707C36.8174 20.2988 36.2812 18.6934 36.2812 16.6543C36.2812 14.6211 36.8203 13.0215 37.8984 11.8555C38.9766 10.6836 40.4385 10.0977 42.2842 10.0977C43.292 10.0977 44.2061 10.2969 45.0264 10.6953C45.8525 11.0938 46.5146 11.6562 47.0127 12.3828C47.5107 13.1094 47.792 13.9385 47.8564 14.8701H45.2725C45.1494 14.0908 44.8125 13.4668 44.2617 12.998C43.7168 12.5293 43.0576 12.2949 42.2842 12.2949C41.2822 12.2949 40.4824 12.6875 39.8848 13.4727C39.2871 14.2578 38.9883 15.3154 38.9883 16.6455C38.9883 17.999 39.2842 19.0684 39.876 19.8535C40.4678 20.6328 41.2734 21.0225 42.293 21.0225C43.0781 21.0225 43.7373 20.8057 44.2705 20.3721C44.8037 19.9385 45.1406 19.3467 45.2812 18.5967H47.8652C47.7188 20.0088 47.1416 21.1338 46.1338 21.9717C45.126 22.8037 43.8428 23.2197 42.2842 23.2197Z" fill="black"/>
<path d="M52.1631 23H49.5088V10.3174H52.1631V16.1006H52.2422L57.0059 10.3174H59.959L55.2656 15.9424L60.2842 23H57.1113L53.3496 17.7002L52.1631 19.124V23Z" fill="black"/>
</g>
<defs>
<linearGradient id="paint0_linear" x1="91.2082" y1="30.527" x2="68.5754" y2="7.65597" gradientUnits="userSpaceOnUse">
<stop stop-color="#FF4567"/>
<stop offset="1" stop-color="#FF758E"/>
</linearGradient>
<clipPath id="clip0">
<rect width="177" height="34" fill="white"/>
</clipPath>
</defs>
</svg>
