<svg width="138" height="44" viewBox="0 0 138 44" fill="none" xmlns="http://www.w3.org/2000/svg">
<g opacity="0.1">
<path fill-rule="evenodd" clip-rule="evenodd" d="M51.6624 6.2719C53.0418 6.2719 54.3451 5.10211 54.3451 3.54107C54.3451 1.90257 52.9657 0.731982 51.6624 0.731982C51.3096 0.729777 50.9598 0.798932 50.6334 0.935438C50.307 1.07194 50.0105 1.27308 49.761 1.52719C49.5115 1.78129 49.3141 2.08331 49.1801 2.41571C49.0461 2.74812 48.9783 3.10431 48.9806 3.46361C48.9798 5.10211 50.2063 6.2719 51.6624 6.2719ZM49.5162 3.46282C49.5162 2.21399 50.5121 1.27736 51.6617 1.27736C52.8112 1.27736 53.8079 2.21399 53.8079 3.46282C53.8079 4.78911 52.8112 5.72574 51.6617 5.72574C50.5121 5.72574 49.5162 4.7899 49.5162 3.46282ZM51.2021 3.69678H51.6617L52.4278 5.10132H52.8873L52.0443 3.69678C52.5039 3.61853 52.8105 3.38457 52.8105 2.8384C52.8105 2.21398 52.427 1.90177 51.7377 1.90177H50.7418L50.665 5.10132H51.2014V3.69678H51.2021ZM51.2021 3.30711V2.29223H51.6617C52.0451 2.29223 52.3517 2.44873 52.3517 2.8384C52.3517 3.30632 52.0451 3.30631 51.6617 3.30631H51.2021V3.30711ZM16.1806 34.2861C13.6517 31.3205 15.5674 26.0145 16.0277 21.4887C15.5682 21.9566 9.74344 35.9254 4.45583 35.3792C-0.218566 34.0529 0.394648 28.5122 1.85084 24.4543H9.20785C7.0616 31.0881 10.2045 28.3573 12.4261 24.0638C16.7178 14.7782 16.8707 13.9981 21.7749 0.0301056H30.1285C27.6765 7.98944 25.3005 15.7148 24.2277 23.9081C24.2277 24.2986 24.3046 24.6108 24.6112 24.4543C26.45 24.0638 36.0294 1.59036 36.8723 0.0301056H44.9194C44.8426 0.810231 36.1062 26.2501 37.4856 28.5905C38.1756 29.9183 39.1715 27.4207 40.0905 26.3275L41.3938 27.8111C38.7112 30.7767 35.6467 36.1609 31.3542 35.38C30.741 35.1452 30.2054 34.7564 29.6682 34.3659C25.3005 30.3862 33.5765 15.6374 32.5038 14.4668C32.3501 14.3885 31.584 16.1053 31.5071 16.34C28.9782 21.646 23.3071 35.5365 18.7096 35.5365C17.9434 35.5349 16.5641 34.7556 16.1806 34.2861ZM77.9468 34.8322C77.1038 34.5991 76.6443 34.1296 76.3385 33.1155C76.2609 32.9598 76.2609 32.8807 76.2609 32.6476C76.2609 32.1781 76.3385 31.7102 76.4138 31.164C76.4914 30.7751 76.7212 30.3056 76.7212 29.8377C76.7972 29.8377 76.7972 29.7587 76.7972 29.682L76.6443 29.8377C76.4138 29.8377 75.9543 30.4613 75.6484 30.6961C75.1889 31.0865 74.7278 31.477 74.422 31.7102C73.6566 32.3354 72.889 32.959 71.8931 33.5052C71.8931 33.5052 71.6625 33.7383 71.2806 34.0513C70.8196 34.2845 70.4377 34.5193 70.0542 34.5975C69.5947 34.7951 69.0878 34.8493 68.598 34.7532C67.6782 34.5185 66.9881 33.8158 66.6055 32.9582C66.5286 32.3346 66.6055 31.5537 66.9121 30.7735C67.2187 29.4457 67.755 28.5106 68.1385 27.3385C68.2914 26.7148 68.5212 26.1687 68.8278 25.3885C69.0575 24.6076 69.3641 23.7492 69.6707 22.9691C69.7484 22.3439 70.0542 21.642 70.1303 21.1741C70.2079 21.0959 70.1303 21.0184 70.2079 20.9402C70.1303 20.7845 70.1303 20.7845 69.9013 20.7845C69.4418 21.0184 68.9815 21.3306 68.6749 21.5646C68.1385 21.8768 67.6782 22.189 67.1418 22.3447C66.9881 22.4237 67.065 22.1115 67.065 21.8768C67.065 21.4089 67.1418 21.0184 67.065 20.3157C67.065 20.3157 67.1418 20.3157 67.1418 20.2375C67.1418 20.081 67.2955 20.0035 67.3716 20.0035C69.3634 18.7547 71.3559 17.1945 73.3485 16.0239C73.503 16.0239 73.7319 15.8682 74.1154 15.6342C74.5749 15.4002 75.5708 15.4777 76.0319 15.6342C76.4914 15.7899 76.7972 16.1804 76.8749 16.5708C77.0278 17.5075 76.0319 19.146 75.7245 20.2383C75.8021 20.3165 75.5716 20.7845 75.5716 20.7845C75.265 21.7211 75.1121 22.3447 74.7286 23.4378C74.3467 24.6867 73.8856 26.013 73.4261 27.3393C73.2732 27.8088 72.8897 29.056 72.8137 29.5255C72.6608 29.7587 72.8137 29.8377 72.9666 29.916C73.0426 30.0717 73.4261 29.8369 73.6566 29.7587C74.1162 29.4465 74.8815 28.6671 75.3426 28.1976C75.4955 28.1202 75.7245 27.8854 75.879 27.7297C76.4914 26.8713 77.1038 26.1687 77.8707 25.0779C77.9468 24.6084 78.0237 24.5317 78.4071 23.75C78.4832 23.4378 79.0195 22.5012 79.2501 21.955C79.403 21.7211 79.5567 21.0967 79.5567 21.0967C79.7872 20.7062 79.9401 20.16 80.1691 19.4582C80.2467 18.9902 80.2467 18.8337 80.6302 17.8197C80.7063 17.3517 80.7831 17.117 80.9368 16.7273C80.9368 16.6491 81.0897 16.5716 81.0897 16.4151L81.2426 16.3369C82.851 16.4151 84.4609 16.4151 86.0715 16.5708L86.2244 16.6491V16.8048C86.1468 16.9613 86.1468 17.117 86.0715 17.351C85.841 17.8971 85.6104 18.6772 85.3814 19.4582C84.9204 21.4089 83.0815 27.1061 82.2385 29.9152C82.1625 30.0709 82.2385 30.2274 82.1625 30.304C82.0848 30.6163 81.9319 30.6945 82.008 30.9293H82.3154L82.4683 30.7735C82.6973 30.6945 83.0047 30.4605 83.3113 30.2274C83.4642 30.1483 83.5403 30.0717 83.6932 29.8369H84.0766C84.1542 29.8369 84.3832 30.6953 84.4601 30.93C84.4601 31.2423 84.4601 31.2422 84.5377 31.398C84.5377 31.6327 84.5377 31.7102 84.4601 31.7884L84.3072 31.8659C83.6932 32.2563 83.0807 32.7243 82.5444 33.1147C81.9319 33.4269 81.9319 33.5052 81.2419 33.8956C80.7823 34.2078 80.3213 34.5193 79.8625 34.675C79.4791 34.8307 79.2501 34.8307 79.0195 34.8307C78.4079 34.9113 78.255 34.8322 77.9468 34.8322ZM91.6657 43.729L91.5881 43.65C91.6657 43.1038 91.741 42.6359 91.9716 42.0123C92.8145 39.0467 93.6575 36.1601 94.731 33.3502C94.96 32.8041 94.96 32.8041 95.0376 32.4128H94.8071C94.5766 32.6476 94.0417 33.038 93.6583 33.4269C92.5095 34.3643 90.8235 35.2219 88.9831 34.2853C88.6012 34.1296 88.4483 34.0521 87.9872 33.6617C87.6053 33.2712 87.2972 32.8033 86.9913 32.2571C86.6855 31.711 86.455 30.5404 86.3013 29.7595C86.3789 28.3565 86.4542 26.6382 86.9153 24.9214C87.2219 23.7516 88.0641 21.8009 88.907 20.3956C89.6724 19.1467 90.5154 18.2884 91.8194 17.5082C92.0484 17.196 93.5054 16.4159 93.9649 16.2594C94.5013 16.1812 94.9608 15.9472 95.4979 15.869C96.3409 15.7907 97.3368 15.635 98.3327 16.2594C99.0227 16.9621 98.9467 17.43 99.3286 17.5082C99.483 17.43 99.483 17.3525 99.483 17.196C99.712 16.8056 99.7896 16.1812 100.018 15.9472C100.325 15.7915 103.083 15.869 104.54 15.9472C104.847 15.9472 105.076 16.1812 104.922 16.4934L102.701 23.5169L102.394 24.6084C101.551 27.3393 100.786 30.1491 99.7896 32.88L98.1798 38.4989C97.8732 39.2783 96.8004 43.337 96.4177 43.9606C96.5699 43.9622 92.8906 44.0412 91.6657 43.729ZM92.8906 24.1421C93.1211 23.5184 93.5046 22.8932 93.8112 22.3471C94.1178 21.8017 94.4236 21.2555 94.8071 20.7086C95.4971 20.2407 96.1096 19.772 96.8765 19.9285C97.7955 20.3189 97.4889 21.8792 97.1831 23.3612C96.7236 25.0005 96.1872 27.1077 94.9608 28.7454C94.1178 29.8385 93.5814 30.0732 93.0458 30.229C91.8194 30.0732 91.8955 28.3565 91.9723 27.4981C91.9723 27.4981 92.0484 27.3408 92.0484 27.1077C92.2013 26.2493 92.5848 25.0787 92.8906 24.1421ZM105.23 33.1945C105 33.1945 104.004 33.8182 103.544 34.2086C103.39 34.2086 103.314 34.3643 103.161 34.3643C102.547 34.2086 102.394 33.2712 102.165 32.8033C102.165 32.5685 102.087 32.4128 102.087 32.0224C102.471 31.3987 104.463 31.7892 103.773 30.1499C103.62 27.887 104.004 25.3909 104.922 23.3604C105.536 22.1906 106.762 20.3173 106.839 20.3173C107.222 19.6929 107.834 19.225 108.372 18.6788C108.602 18.3666 108.908 18.2109 109.292 18.0544C110.135 17.3517 112.127 16.1812 113.353 15.869C114.962 15.635 116.342 15.3228 117.799 15.7132C118.718 15.9472 119.944 16.9621 120.097 17.8204C120.25 18.5223 120.097 19.1467 119.867 20.1616C119.177 22.1898 119.254 22.1131 118.718 22.9715C118.105 23.8299 117.875 24.2203 116.572 25.4676C116.111 25.858 115.805 26.1702 115.268 26.6374C113.813 28.0419 112.97 28.2767 111.514 29.3698C111.437 29.3698 110.594 29.8377 110.441 29.8377C109.445 30.3839 110.288 30.7751 110.824 30.9308C112.51 31.3988 114.886 29.7595 116.035 28.6679C116.111 28.5889 116.801 27.887 116.956 27.887C117.338 28.4332 117.952 29.2149 118.105 29.7595L117.952 30.0725C116.495 31.7102 114.043 33.506 112.97 33.9739C111.514 34.7548 109.215 34.9113 107.835 34.7548C106.839 34.4418 105.996 33.7391 105.23 33.1945ZM109.751 27.8103C109.598 27.8103 109.598 27.7313 109.598 27.6546C109.751 25.4684 110.594 23.4402 111.82 21.7234C112.357 20.8651 113.429 19.304 114.58 18.9144C115.115 18.6804 115.576 18.6804 116.035 18.8361C116.495 18.9918 116.342 20.3181 115.729 21.2555C114.502 23.2055 112.892 24.9222 112.28 25.6249C111.514 26.4825 110.516 27.3408 109.751 27.8103ZM55.0343 34.5991C54.3443 34.3643 53.7318 33.8964 53.0418 33.4277C52.3517 32.8815 51.9691 32.2579 51.5088 31.4778C51.4319 31.3205 51.3558 31.0083 51.1253 30.6969C50.9527 30.1623 50.8244 29.614 50.7418 29.0576C50.665 28.2782 50.665 28.0435 50.5889 27.4981V27.0286L50.4352 26.9512C50.0518 26.9512 49.822 27.1069 49.4386 27.2634C48.8254 27.4981 48.0592 27.8095 47.5229 27.887C47.3699 27.966 46.7567 28.0427 46.603 28.1217L46.5262 27.966C46.5262 27.4981 46.6799 27.4199 46.756 27.1851L47.2155 25.8588C47.5221 25.3909 47.4452 25.2352 47.7518 24.7657C48.0584 24.61 48.1353 24.61 49.0551 24.4535C49.5915 24.376 50.3576 24.2978 50.9708 24.1413C51.0477 24.0622 51.1245 23.5951 51.1245 23.5177V23.4386C51.1245 23.2039 51.2014 23.0482 51.2014 22.8925C51.3551 22.4245 51.5848 21.8784 51.5848 21.4879C51.8146 21.1757 51.9683 20.7078 52.1212 20.3956C52.2741 20.0834 52.3509 19.7712 52.5807 19.459C52.9642 18.6788 53.3468 17.8204 53.8071 17.0395C54.0369 16.6491 54.2667 16.2594 54.727 15.635C55.1865 15.0888 55.6468 14.3862 55.8765 14.0739C56.1063 13.9957 56.1063 13.9175 56.1831 13.84C56.4898 13.5278 56.7195 13.1381 57.103 12.8251C57.793 12.045 58.4055 11.2649 59.3253 10.4057C59.6319 10.016 59.708 10.016 59.8617 10.016C60.0914 9.62558 60.398 9.46986 60.9344 9.0794C61.3806 8.7224 61.8408 8.38384 62.3137 8.06453C63.7691 6.89395 66.0683 5.64511 67.7543 5.1772C67.908 5.09895 69.0575 4.78674 69.67 4.78674C70.0534 4.78674 71.7394 4.63024 72.3518 4.70849C72.5824 4.78674 72.8882 4.78674 73.2724 4.94244C73.4253 5.09894 73.4253 5.25466 73.6559 5.33291C73.7319 5.64511 73.6559 5.95732 73.6559 6.26953C73.5782 6.65999 73.3485 7.12791 73.2724 7.51836C73.1195 7.98628 72.3518 9.46907 72.046 9.93778C71.9043 10.2047 71.751 10.465 71.5865 10.7179C70.8964 11.6545 70.4377 12.4347 69.7476 13.2148C69.3634 13.6827 68.6741 14.5411 68.598 14.6193C67.908 15.3995 67.065 16.1804 66.5286 16.804C66.0683 17.4284 65.6088 17.8189 64.9956 18.365C64.2294 18.9895 63.9228 19.2234 63.2328 19.8478C62.6196 20.394 62.4667 20.394 62.0832 20.7845C62.0064 20.7845 61.5468 21.3306 61.3171 21.4089C60.6278 21.8768 60.0146 22.3447 59.1716 22.8142C58.7881 23.1264 58.2518 23.2031 58.022 23.5169C57.7154 23.75 57.5625 23.8291 57.0261 23.9057C57.0261 23.9848 56.9493 24.2187 56.8724 24.2962C56.7956 24.531 56.7956 24.531 56.5658 24.9989C56.2592 25.7782 56.4129 25.7782 56.2592 26.2477C56.3361 26.9504 56.2592 27.4175 56.4121 28.1202C56.4121 28.1976 56.489 28.8995 56.565 28.8995V28.9785C56.6419 29.5247 56.7187 29.9926 57.3312 30.2274H57.7146C58.7105 29.5247 58.7874 28.8995 59.094 27.808C59.1708 26.6366 59.3237 25.0771 59.0171 23.984C59.0171 23.905 58.9403 23.5935 58.9403 23.5161V23.437C58.9403 23.358 59.2469 23.2023 59.5535 23.0466C59.7833 22.9691 60.0899 22.7344 60.3965 22.6577C61.2394 22.2672 62.4659 21.4863 63.1552 21.1741C63.232 21.1741 63.232 21.0959 63.4618 21.0959L63.5386 21.1741C63.6155 21.4081 63.6915 21.5646 63.8452 21.8768C63.9221 22.2672 63.9221 22.5795 63.9981 22.8142C64.1518 23.75 64.075 24.7641 64.075 25.6225C63.9981 26.6366 63.6915 27.8088 63.4618 28.7438C63.0783 29.9152 62.4651 31.1632 61.699 32.1773C61.1626 33.0372 60.7023 33.5052 60.0899 33.8956C59.7825 34.1288 59.4767 34.2845 59.3237 34.3635C58.9403 34.6757 58.6337 34.6758 58.4039 34.754C57.9444 34.754 57.4072 34.9097 56.9485 34.9097C56.26 34.7556 55.7236 34.7556 55.0343 34.5991ZM58.4823 20.2399V20.0059C58.636 19.3815 59.0187 18.7571 59.3253 18.2109C60.398 16.7281 61.5476 15.0896 62.6203 13.7633C63.5402 12.5927 64.6897 11.1882 65.4559 10.7203C66.1452 10.2516 66.9113 9.70541 67.6782 9.31574C67.8319 9.16003 68.1385 9.16002 68.2914 9.08177C68.4443 8.92527 68.5212 8.92528 68.6749 8.84782C68.6749 8.84782 68.7517 9.00353 68.9046 9.00353V9.08177C68.9046 9.31573 68.9046 9.31573 68.7509 9.54969C68.598 10.1741 68.1377 10.8768 67.8311 11.5004C67.4477 11.8909 66.9881 12.671 66.7584 12.8267C66.5286 13.3729 65.9154 13.919 65.4559 14.3877C65.2261 14.6999 64.6897 15.4026 64.5361 15.5583C63.9228 15.9488 63.2336 16.6507 62.6203 17.1194C61.7774 17.822 60.9344 18.4457 60.0146 19.1483C59.6311 19.5388 59.2484 19.851 58.7121 20.085C58.7128 20.0842 58.5592 20.2399 58.4823 20.2399ZM121.935 20.6303C122.013 20.4746 122.242 20.1624 122.549 19.8502C123.239 18.6796 124.235 17.743 125.384 16.8064C125.462 16.7281 125.537 16.6507 125.767 16.6507C125.767 16.6507 125.843 16.5724 126.074 16.5724H126.227C127.3 16.4167 130.442 16.1819 131.285 16.2602C131.362 16.5724 130.978 16.9629 130.748 17.1968C129.753 17.8987 128.91 18.8353 128.067 19.7719C126.075 21.8792 124.005 27.1843 125.001 29.6037C125.232 30.4621 126.075 31.1648 127.071 30.9316C127.53 30.8526 127.838 30.7759 128.297 30.4621C128.987 29.9942 130.367 27.8103 130.443 27.4191C131.209 26.0145 132.588 22.2688 132.359 20.786C132.359 20.6303 132.129 20.4738 132.129 20.3181C132.129 20.2399 131.976 20.2399 131.9 20.1624C130.979 20.2407 129.677 21.8792 129.369 22.6601C129.293 22.8158 129.293 22.8932 129.216 22.9723H129.063C128.604 22.6601 128.144 22.1139 127.838 21.6452V21.2555C128.91 19.7727 130.059 18.2117 131.592 17.0411C131.976 16.5732 133.739 15.6366 134.352 15.4801C135.042 15.4018 135.885 15.6366 136.421 16.1827C137.724 17.6647 137.111 20.6303 136.728 22.4253C136.497 23.6742 136.268 24.2203 135.885 25.1562C135.195 26.7955 135.119 26.9512 134.811 27.5756C133.278 30.3064 130.367 33.6625 127.302 34.5208C125.845 34.833 124.619 34.9888 123.241 34.7556C121.937 34.2094 120.635 32.8815 120.021 31.711C119.796 31.1074 119.642 30.4789 119.562 29.8385C119.333 29.3706 119.485 26.952 119.639 26.6382C119.639 26.2493 120.099 24.2978 120.329 23.9864C120.633 23.2047 121.476 21.2547 121.935 20.6303ZM43.6922 30.7751C44.8418 30.7751 45.8385 31.7892 45.9145 33.038C45.9145 34.2078 44.8418 35.2994 43.6922 35.2994C42.5426 35.2994 41.4699 34.2078 41.4699 33.038C41.4699 31.79 42.5426 30.7751 43.6922 30.7751ZM78.5608 10.0959L78.4832 10.4863H77.9468V10.0959C77.412 10.0959 77.0278 9.94015 76.8749 9.7054C76.6443 9.47144 76.5682 9.23749 76.5682 8.84703C76.5682 8.45657 76.6443 8.22261 76.8749 7.98865C77.1038 7.75469 77.4112 7.67644 77.8707 7.59898V7.28678H78.4832L78.5608 7.59898C79.0203 7.67723 79.4038 7.75469 79.5567 7.98865C79.7872 8.22261 79.8633 8.53482 79.8633 8.84703C79.8633 9.23749 79.7872 9.47144 79.5567 9.7054C79.4038 9.94015 79.0203 10.0959 78.5608 10.0959ZM78.5608 9.5489C78.7137 9.5489 78.8674 9.5489 78.9427 9.47066C79.0972 9.39241 79.1732 9.39241 79.1732 9.2367C79.2509 9.15845 79.2509 9.00274 79.2509 8.84624C79.2509 8.37832 79.0203 8.14357 78.5608 8.14357V9.5489ZM77.8715 9.5489V8.14436C77.641 8.14436 77.4881 8.22261 77.3351 8.37832C77.2575 8.45657 77.1822 8.61228 77.1822 8.92449C77.1815 9.31573 77.412 9.5489 77.8715 9.5489ZM80.5534 7.28678H81.0897V9.39399L82.3922 7.28678H83.0062V10.4863H82.3922V8.37911L81.1658 10.4863H80.5534V7.28678ZM83.7716 10.4863V7.28678H84.7675C85.1509 7.28678 85.4575 7.36503 85.5344 7.36503C85.7634 7.44328 85.841 7.52153 85.9939 7.67724C86.0715 7.83295 86.1468 8.06769 86.1468 8.30165C86.1468 8.45736 86.1468 8.61386 86.0707 8.76957C86.0096 8.90888 85.9002 9.02033 85.7633 9.08257C85.6873 9.16082 85.6104 9.23828 85.4567 9.23828C85.303 9.23828 85.0733 9.31653 84.8443 9.31653H84.3832V10.4871H83.7716V10.4863ZM84.384 7.83295V8.76957H84.7675C84.998 8.76957 85.1509 8.69132 85.227 8.69132C85.3046 8.69132 85.3814 8.61307 85.4575 8.53561C85.4575 8.45736 85.5351 8.3799 85.5351 8.30165C85.5351 8.14515 85.4575 8.06769 85.3822 7.98865C85.3822 7.9104 85.3046 7.9104 85.1517 7.83295H84.384ZM86.76 10.4863V7.28678H87.6806L88.217 9.47145L88.8294 7.28678H89.75V10.4863H89.2136L89.1376 7.98865L88.6012 10.4863H87.9872L87.3748 7.98865V10.4863H86.76ZM90.5154 10.4863V7.28678H92.8153V7.83295H91.1294V8.53561H92.7377V9.08177H91.1294V9.94016H92.8914V10.4863H90.5154ZM93.5807 10.4863V7.28678L94.1946 7.36503V8.53561H95.4195V7.28678L96.0335 7.36503V10.4863H95.4195V9.08177H94.1946V10.4863H93.5807ZM96.8765 10.4863L96.7989 7.36503L97.4889 7.28678V8.53561H98.7154L98.6393 7.36503L99.3278 7.28678V10.4863H98.7154V9.08177H97.4889V10.4863H96.8765ZM100.095 7.28678H100.786V8.61307H101.551C101.781 8.61307 102.012 8.61307 102.165 8.69132C102.318 8.76957 102.471 8.84782 102.547 9.00353C102.701 9.16002 102.701 9.31573 102.701 9.54969C102.701 9.78365 102.701 9.94015 102.547 10.0959C102.394 10.2516 102.318 10.3298 102.165 10.4081C102.012 10.4863 101.858 10.4863 101.551 10.4863H100.095V7.28678ZM100.708 9.94016H101.781C101.858 9.94016 101.934 9.8619 102.012 9.78365C102.012 9.7054 102.088 9.62794 102.088 9.54969C102.088 9.39398 102.012 9.31574 101.935 9.23749C101.859 9.15924 101.629 9.15923 101.399 9.08177H100.786L100.708 9.94016ZM103.083 7.36424L103.697 7.28599V10.4855H103.083V7.36424ZM104.462 10.4863V7.28678L106.762 7.36503L106.839 7.83295H105.153V8.53561H106.686V9.08177H105.153V9.94016H106.839V10.4863H104.462ZM108.755 10.4863V7.36503H109.674L110.21 9.47223L110.824 7.36503H111.743V10.4863H111.131V7.98865L110.517 10.4863H109.905L109.292 7.98865V10.4863H108.755ZM115.267 10.4863H114.579L114.348 9.78365H113.122L112.815 10.4863H112.203L113.428 7.36503H114.042L115.267 10.4863ZM114.119 9.23749L113.735 8.0669L113.276 9.23749H114.119ZM115.805 7.36424H117.952L117.874 7.83216H116.419V10.4855H115.805V7.36424ZM120.863 10.4863H120.249L119.943 9.78365H118.716L118.41 10.4863H117.797L119.022 7.36503H119.636L120.863 10.4863ZM119.713 9.23749L119.331 8.0669L118.87 9.23749H119.713ZM121.782 8.22261L121.17 8.0669C121.323 7.52074 121.706 7.28678 122.319 7.28678C122.702 7.28678 123.009 7.36502 123.162 7.52073C123.315 7.67644 123.468 7.9104 123.468 8.0669C123.468 8.22261 123.392 8.37911 123.315 8.53482C123.239 8.61307 123.085 8.76878 122.932 8.84703C123.162 8.92528 123.315 9.00274 123.393 9.15924C123.469 9.23749 123.546 9.47144 123.546 9.62715C123.546 9.93936 123.468 10.0951 123.239 10.329C123.009 10.4855 122.703 10.563 122.319 10.563C122.012 10.563 121.782 10.4847 121.552 10.4065C121.399 10.2508 121.245 10.0943 121.17 9.78207L121.706 9.54811C121.782 9.78207 121.859 9.86032 121.935 9.93857C122.013 10.0168 122.166 10.0168 122.319 10.0168C122.472 10.0168 122.625 10.0168 122.778 9.93857C122.856 9.78207 122.931 9.70461 122.931 9.62636C122.931 9.46986 122.855 9.39241 122.702 9.31416C122.624 9.23591 122.472 9.15844 122.241 9.15844H122.165V8.69132C122.396 8.69132 122.548 8.69132 122.624 8.53561C122.702 8.45736 122.777 8.3799 122.777 8.2234C122.777 8.06769 122.777 7.98944 122.701 7.91119C122.624 7.83294 122.471 7.83295 122.318 7.83295C122.088 7.83295 121.86 7.9104 121.782 8.22261ZM124.235 7.36424H124.848V9.47145L126.074 7.36424H126.686V10.4855H126.15V8.45657L124.848 10.4855H124.235V7.36424ZM127.529 10.4863V7.36503H128.143V8.61386H129.368V7.36503H129.982V10.4863H129.368V9.08177H128.143V10.4863H127.529ZM130.748 7.36424H131.438V8.61307H132.205C132.434 8.61307 132.665 8.61307 132.818 8.69132C132.971 8.76957 133.124 8.84782 133.201 9.00353C133.354 9.16002 133.354 9.39398 133.354 9.54969C133.354 9.78365 133.354 9.94015 133.201 10.0959C133.124 10.3298 132.971 10.4081 132.818 10.4081C132.742 10.4863 132.511 10.4863 132.281 10.4863H130.748V7.36424ZM131.438 9.94016L132.052 10.0184C132.205 9.94015 132.358 9.94016 132.434 9.94016C132.511 9.94016 132.587 9.8619 132.664 9.78365C132.664 9.78365 132.742 9.62794 132.742 9.54969C132.742 9.39398 132.664 9.31574 132.587 9.23749C132.434 9.15924 132.281 9.15924 132.052 9.15924H131.438V9.94016H131.438ZM133.738 7.36424H134.35V10.4855H133.738V7.36424Z" fill="black"/>
</g>
</svg>
