<svg width="149" height="47" viewBox="0 0 149 47" fill="none" xmlns="http://www.w3.org/2000/svg">
<g opacity="0.1">
<path d="M97.3983 21.9082C96.8996 22.0754 96.2179 22.2169 95.3714 22.3264C94.9678 22.3809 94.5192 22.4082 93.9936 22.4082C93.1114 22.4082 92.1553 22.3355 91.2297 22.2607L91.1977 22.2595C90.3403 22.1927 89.5289 22.1297 88.7506 22.1297C88.1945 22.1297 87.6849 22.1639 87.196 22.2285C85.7417 22.4149 84.5949 22.887 84.5949 22.887L84.6073 22.7647C84.889 19.7509 87.3397 17.1776 90.3051 16.7707C90.5785 16.7376 90.8602 16.7189 91.1418 16.7189C93.9357 16.7189 96.6453 18.9075 97.4505 21.8151L97.4707 21.8904L97.3983 21.9082ZM100.812 23.1879L100.811 23.1468C100.798 22.9529 100.762 22.6394 100.723 22.3024C100.647 21.6909 100.517 21.089 100.339 20.5084C98.9901 16.1123 95.3802 13.2753 91.1418 13.2753C90.7191 13.2753 90.2819 13.3031 89.8509 13.3639C84.4156 14.0866 80.724 19.1775 81.4429 24.9531C82.0967 30.1818 86.1676 33.7639 91.1217 33.7639C91.5398 33.7639 91.9749 33.734 92.4148 33.6795C95.0551 33.3329 97.3751 32.1899 99.1131 29.9676C99.2108 29.841 99.2594 29.6792 99.2413 29.5345C99.2253 29.4057 99.1524 29.2834 99.0211 29.1852C98.7296 28.9683 97.6888 28.4465 97.1224 28.1677C96.9559 28.0817 96.8216 28.015 96.7472 27.9765C96.5756 27.8852 96.4526 27.8441 96.3404 27.8441C96.203 27.8441 96.0727 27.9167 95.9456 28.0764C94.8252 29.4223 93.407 30.1294 91.9584 30.326C91.6711 30.3623 91.3925 30.3815 91.1217 30.3815C88.4813 30.3815 85.8167 28.5544 85.043 26.0469L85.0238 25.9812L85.0807 25.9529C85.2176 25.8824 86.4533 25.288 88.2844 25.288C88.5113 25.288 88.7428 25.2976 88.9686 25.3184C89.4937 25.3612 90.0214 25.4317 90.5775 25.5043C91.6044 25.6448 92.669 25.79 93.9119 25.79C94.6778 25.79 95.4308 25.7329 96.1988 25.6223C99.2211 25.0204 100.42 24.1445 100.429 24.1365C100.856 23.8513 100.84 23.6147 100.812 23.188" fill="black"/>
<path d="M148.157 14.426C148.157 14.1638 147.948 13.9528 147.697 13.9528H145.196C144.947 13.9528 144.741 14.1638 144.741 14.426V32.806C144.741 33.0656 144.947 33.2803 145.196 33.2803H147.697C147.948 33.2803 148.157 33.0656 148.157 32.806V14.426Z" fill="black"/>
<path d="M146.449 7.39751C145.205 7.39751 144.191 8.44645 144.191 9.73359C144.191 11.0175 145.205 12.0643 146.449 12.0643C147.695 12.0643 148.707 11.0175 148.707 9.73359C148.707 8.44645 147.695 7.39751 146.449 7.39751Z" fill="black"/>
<path d="M113.337 16.7659C116.882 16.7659 119.66 19.7808 119.66 23.6321C119.66 27.5063 117.024 30.4251 113.528 30.4251C111.762 30.4251 110.126 29.7708 108.929 28.5857C107.693 27.3669 107.016 25.6461 107.016 23.7474C107.016 19.8977 109.851 16.7659 113.337 16.7659ZM113.226 33.7701C113.384 33.777 113.548 33.7834 113.707 33.7834C116.277 33.7834 118.665 32.758 120.44 30.91C122.239 29.0263 123.228 26.4429 123.228 23.632C123.228 17.8249 118.901 13.2751 113.377 13.2751C108.882 13.2751 105.087 16.3343 103.927 20.8847C103.729 21.6575 103.525 23.6278 103.525 25.5927V40.014C103.525 40.2769 103.729 40.4909 103.984 40.4909H106.465C106.721 40.4909 106.929 40.2741 106.929 40.0103L106.927 30.9255L107.057 31.0564C108.276 32.2799 110.536 33.6397 113.226 33.7701" fill="black"/>
<path d="M68.7599 16.7659C72.3016 16.7659 75.0805 19.7808 75.0805 23.6321C75.0805 27.5063 72.4458 30.4251 68.9465 30.4251C67.1769 30.4251 65.5479 29.7708 64.3515 28.5857C63.1143 27.3669 62.4337 25.6461 62.4337 23.7474C62.4337 19.8977 65.2714 16.7659 68.7599 16.7659ZM68.6498 33.7701C68.808 33.777 68.9708 33.7834 69.1274 33.7834C71.7 33.7834 74.0892 32.758 75.8609 30.91C77.6609 29.0263 78.6522 26.4429 78.6522 23.632C78.6522 17.8249 74.3223 13.2751 68.7971 13.2751C64.3035 13.2751 60.5049 16.3343 59.3473 20.8847C59.1462 21.6575 58.9452 23.6278 58.9452 25.5927V40.014C58.9452 40.2769 59.1514 40.4909 59.3995 40.4909H61.8879C62.1432 40.4909 62.351 40.2741 62.351 40.0103L62.3468 30.9255L62.4724 31.0564C63.6916 32.2799 65.9516 33.6397 68.6498 33.7701" fill="black"/>
<path d="M125.618 30.5508C127.778 32.5937 130.138 33.7607 133.201 33.7607H133.299C138.587 33.7254 140.949 30.7383 140.949 27.7955C140.949 23.7247 137.233 22.6122 136.094 22.3654C135.729 22.2917 135.349 22.218 134.96 22.1379C134.039 21.9547 133.084 21.7656 132.215 21.5178C131.607 21.3448 129.622 20.6617 129.622 19.1283C129.622 17.4401 131.435 16.53 133.138 16.53C134.568 16.53 135.761 16.7789 137.287 18.0105C137.407 18.1077 137.574 18.2188 137.778 18.2188C137.929 18.2188 138.074 18.1648 138.229 18.05C138.652 17.728 139.425 17.0539 139.936 16.5263C140.056 16.4002 140.113 16.2624 140.105 16.1182C140.094 15.8944 139.933 15.7113 139.85 15.6408C137.809 13.9675 135.845 13.2828 133.075 13.2753H133.055C129.093 13.2753 126.103 15.9073 126.103 19.3964C126.103 22.1614 128.302 24.1252 132.289 24.9344L134.785 25.4289C136.426 25.7403 137.349 26.6408 137.317 27.9018C137.287 29.1307 135.829 30.4034 133.432 30.4034C131.476 30.4034 129.753 29.614 128.31 28.2601L128.289 28.2388C128.187 28.1432 128.065 28.0267 127.901 28.0267C127.786 28.0267 127.665 28.0817 127.534 28.1875C127.383 28.3135 125.716 29.676 125.538 29.8688C125.457 29.9591 125.418 30.0547 125.42 30.1551C125.424 30.3142 125.526 30.4632 125.618 30.5508" fill="black"/>
<path d="M40.4423 11.6411C40.8682 13.0672 41.1017 14.5807 41.1017 16.1499C41.1017 21.213 38.6929 25.6652 35.0292 28.4547C28.6587 33.3037 19.3733 33.3101 6.55261 37.485C10.422 42.2645 16.2367 45.3067 22.7396 45.3067C34.3941 45.3067 43.8414 35.5436 43.8414 23.5C43.8414 19.128 42.5891 15.0577 40.4423 11.6411Z" fill="black"/>
<path d="M35.3946 6.0518C31.8684 3.31301 27.4878 1.6926 22.7402 1.6926C11.0862 1.6926 1.63928 11.4578 1.63928 23.4998C1.63928 28.3472 3.1695 32.8245 5.75758 36.4445C19.9497 32.1739 31.1557 20.6692 35.3946 6.0518Z" fill="black"/>
</g>
</svg>
